# xmcd
#
# Track frame offsets:
#	150
#	11511
#	25088
#	37193
#	50050
#	62469
#	76133
#	87404
#	100207
#	112764
#	127912
#	140015
#	154376
#	167500
#	178184
#	190400
#	199866
#	212455
#	222991
#	233240
#	246104
#	260913
#	274046
#	287428
#	299438
#	313368
#	326039
#	338685
#
# Disc length: 4673 seconds
#
# Revision: 1
# Processed by: cddbd v1.5.2PL0 Copyright (c) Steve Scherf et al.
# Submitted via: audiograbber 1.83.01
#
DISCID=a4123f1c
DTITLE=mixed - Zlata era vokalnich skupin 1945-1957
DYEAR=1900
DGENRE=Vocal
TTITLE0=Ray Connif - 'S wonderful
TTITLE1=Merry Macs - Sentimental journey
TTITLE2=Modernaires with Paula Kelly - There! I've said it again
TTITLE3=King Sisters - Candy
TTITLE4=Ink Spots - The gypsy
TTITLE5=Andrews Sisters - Near you
TTITLE6=Mills Brothers - Across the alley from the Alamo
TTITLE7=Dinning Sisters - Beg your pardon
TTITLE8=Pied Pipers - Tennessee saturday night
TTITLE9=The Weavers - Good night Irene
TTITLE10=Mills Brothers - The glow warm
TTITLE11=Four Freshmen - It's a blue world
TTITLE12=Ames Brothers - You, you, you
TTITLE13=Hilltoppers - P.S. I love you
TTITLE14=Four Lads - Istanbul (Not Constantinople)
TTITLE15=Fontane Sisters - Hearts of stone
TTITLE16=Crew Cuts - SH - Boom (Life Could Be A Dream)
TTITLE17=Hi-lo's - My baby just cares for me
TTITLE18=Gaylords - The little shoemaker
TTITLE19=De Castro Sisters - Teach me tonight
TTITLE20=Four lads - Moments to remember
TTITLE21=Somethin' Smith and The Readheads - It's a sin to tell a lie
TTITLE22=McGuire Sisters - Sincerely
TTITLE23=Platters - The great pretender
TTITLE24=Four Aces - Love is a many splendored thing
TTITLE25=Chordettes - Born to be with you
TTITLE26=Four Coins - Shangri-la
TTITLE27=Ames Brothers - Melodie d'amour (Melody Of Love)
EXTD=
EXTT0=
EXTT1=
EXTT2=
EXTT3=
EXTT4=
EXTT5=
EXTT6=
EXTT7=
EXTT8=
EXTT9=
EXTT10=
EXTT11=
EXTT12=
EXTT13=
EXTT14=
EXTT15=
EXTT16=
EXTT17=
EXTT18=
EXTT19=
EXTT20=
EXTT21=
EXTT22=
EXTT23=
EXTT24=
EXTT25=
EXTT26=
EXTT27=
PLAYORDER=
